<?xml version="1.0" standalone="no"?>
<!DOCTYPE svg PUBLIC "-//W3C//DTD SVG 20010904//EN"
 "http://www.w3.org/TR/2001/REC-SVG-20010904/DTD/svg10.dtd">
<svg version="1.0" xmlns="http://www.w3.org/2000/svg"
 width="731.000000pt" height="487.000000pt" viewBox="0 0 731.000000 487.000000"
 preserveAspectRatio="xMidYMid meet">

<g transform="translate(0.000000,487.000000) scale(0.100000,-0.100000)"
fill="#000000" stroke="none">
<path d="M5160 3655 l0 -55 80 0 80 0 0 -250 0 -250 -80 0 -80 0 0 -55 0 -55
158 0 c86 0 187 3 225 7 l67 6 0 48 0 49 -80 0 -80 0 0 249 0 248 46 7 c26 3
62 6 80 6 l34 0 0 50 0 50 -225 0 -225 0 0 -55z"/>
<path d="M1625 3690 c-133 -21 -204 -89 -205 -197 0 -107 47 -153 226 -222 99
-38 127 -64 122 -116 -4 -54 -38 -76 -125 -82 -61 -4 -158 10 -215 32 -16 6
-18 0 -18 -54 0 -58 2 -62 27 -72 16 -6 73 -13 128 -16 224 -13 331 53 343
208 8 109 -39 161 -204 225 -119 46 -144 65 -144 109 0 43 34 71 97 81 41 6
146 -6 188 -22 12 -5 15 4 15 54 l0 60 -37 6 c-82 11 -150 14 -198 6z"/>
<path d="M3947 3343 c3 -197 6 -358 7 -358 0 -1 97 1 214 3 l212 4 0 54 0 54
-150 0 -150 0 -2 298 -3 297 -66 3 -67 3 5 -358z"/>
<path d="M2670 3336 l0 -356 65 0 64 0 3 113 3 112 40 2 c117 8 209 38 252 85
84 90 83 269 -3 337 -60 47 -91 54 -261 59 l-163 4 0 -356z m308 225 c63 -45
67 -148 8 -207 -25 -25 -44 -34 -88 -39 -97 -12 -93 -19 -96 139 l-3 139 74
-5 c55 -4 82 -11 105 -27z"/>
<path d="M5160 1551 l0 -361 65 0 65 0 0 150 0 150 34 0 c56 0 87 -35 146
-169 l53 -121 73 0 c41 0 74 3 74 8 0 24 -124 256 -154 290 -36 40 -37 40 -14
47 39 12 89 56 104 91 8 18 14 57 14 86 0 74 -31 125 -94 157 -45 23 -62 26
-208 29 l-158 4 0 -361z m280 234 c35 -18 50 -43 50 -85 0 -65 -64 -110 -155
-110 l-45 0 0 105 0 105 60 0 c35 0 74 -7 90 -15z"/>
<path d="M3950 1539 l0 -362 53 7 c28 3 125 6 215 6 l162 0 0 50 0 50 -145 0
c-169 0 -158 -9 -153 125 l3 80 138 3 137 3 0 54 0 55 -140 0 -140 0 0 90 0
90 73 0 c41 0 108 3 150 6 l77 7 0 48 0 49 -215 0 -215 0 0 -361z"/>
<path d="M1583 1883 l-173 -3 0 -50 0 -49 98 -3 97 -3 3 -302 2 -303 68 0 67
0 -3 305 -4 305 101 0 101 0 0 55 0 55 -92 -2 c-51 -1 -171 -4 -265 -5z"/>
<path d="M2650 1840 l0 -49 98 -3 97 -3 3 -302 2 -303 68 0 67 0 -3 305 -4
305 101 0 101 0 0 50 0 50 -265 0 -265 0 0 -50z"/>
</g>
</svg>
